<?xml version="1.0" encoding="UTF-8"?>
<svg id="Layer_1" data-name="Layer 1" xmlns="http://www.w3.org/2000/svg" xmlns:xlink="http://www.w3.org/1999/xlink" viewBox="0 0 1552.71 1080">
  <defs>
    <style>
      .cls-1 {
        fill: url(#Dégradé_sans_nom_25);
      }

      .cls-2 {
        fill: url(#Dégradé_sans_nom_25-3);
      }

      .cls-3 {
        fill: url(#Dégradé_sans_nom_25-2);
      }
    </style>
    <linearGradient id="Dégradé_sans_nom_25" data-name="Dégradé sans nom 25" x1="557.6" y1="540" x2="932.53" y2="540" gradientUnits="userSpaceOnUse">
      <stop offset="0" stop-color="#a256dc"/>
      <stop offset="1" stop-color="#c154a0"/>
    </linearGradient>
    <linearGradient id="Dégradé_sans_nom_25-2" data-name="Dégradé sans nom 25" x1="581.54" y1="539.89" x2="909.66" y2="539.89" xlink:href="#Dégradé_sans_nom_25"/>
    <linearGradient id="Dégradé_sans_nom_25-3" data-name="Dégradé sans nom 25" x1="581.54" y1="539.89" x2="909.66" y2="539.89" xlink:href="#Dégradé_sans_nom_25"/>
  </defs>
  <path class="cls-1" d="M874.03,417.86h-125.26c-10.54,0-20.73,1.32-30.48,3.86-26.53,6.85-49.54,22.4-65.97,43.39l-.09.09c-15.99,20.64-25.56,46.64-25.56,74.84,0,2.2.09,4.39.18,6.59h-.18v63.51c0,28.71,23.28,51.99,51.99,51.99h63.43v-.26c2.2.18,4.48.26,6.68.26h55.07c10.54,0,20.73-1.32,30.48-3.86,26.53-6.85,49.63-22.4,65.96-43.39,0,0,.09,0,.09-.09,15.28-19.59,24.68-44.01,25.56-70.44.09-1.41.09-2.9.09-4.3v-70.19c0-28.71-23.28-51.99-51.99-51.99ZM886.41,544.35c-1.32,26.61-15.37,49.98-36.1,64.03-9.57,6.5-22.48,6.59-31.97,0-.09,0-.09-.09-.18-.09l-2.11-1.49c-5.38-3.81-12.5-3.77-17.96-.09-11.27,7.6-23.97,13.35-37.38,15.2-6.32.88-12.47,1.05-18.62.44-19.5-1.41-37.68-9.75-51.82-23.8-14.05-14.14-22.4-32.41-23.89-51.91-.18-2.2-.26-4.39-.26-6.59,0-28.37,14.32-53.49,36.19-68.42,9.49-6.5,22.49-6.5,31.97.09.09,0,.09.09.18.09,3.34,2.28,7.29,3.43,11.16,3.43s7.82-1.14,11.16-3.43l12.03-6.76c20.03-6.67,27.49-7.73,35.05-7.73,22.05,0,42.77,8.61,58.5,24.15,15.63,15.72,24.24,36.54,24.24,58.59,0,1.41,0,2.9-.18,4.3Z"/>
  <path class="cls-3" d="M796.84,542.18c0,2.15-.36,4.32-1.1,6.46-1.6,4.56-5.9,7.62-10.73,7.62h-11.89c-4.81,0-9.12-3.06-10.72-7.62-2.93-8.35.11-17.53,7.38-22.31,5.64-3.71,12.94-3.72,18.58,0,5.42,3.57,8.48,9.57,8.48,15.86Z"/>
  <path class="cls-2" d="M737.45,542.18c0,2.15-.36,4.32-1.1,6.46-1.6,4.56-5.9,7.62-10.73,7.62h-11.89c-4.81,0-9.12-3.06-10.72-7.62-2.93-8.35.11-17.53,7.38-22.31,5.64-3.71,12.94-3.72,18.58,0,5.42,3.57,8.48,9.57,8.48,15.86Z"/>
</svg>