<?xml version="1.0" encoding="UTF-8"?>
<svg id="Layer_2" data-name="Layer 2" xmlns="http://www.w3.org/2000/svg" viewBox="0 0 1072.1 874.85">
  <defs>
    <style>
      .cls-1 {
        fill: #9154ff;
      }

      .cls-2 {
        fill: #9154ff;
      }

      .cls-3 {
        fill: #9154ff;
      }
    </style>
  </defs>
  <g id="Layer_1-2" data-name="Layer 1">
    <g>
      <path class="cls-1" d="M885.89,0h-448.61c-37.75,0-74.24,4.72-109.16,13.84-95,24.54-177.43,80.22-236.25,155.4l-.31.32C34.29,243.49,0,336.6,0,437.58c0,7.86.32,15.73.63,23.59h-.63v227.46c0,102.84,83.37,186.21,186.21,186.21h227.16v-.94c7.87.63,16.04.94,23.91.94h197.24c37.75,0,74.24-4.71,109.16-13.84,95-24.54,177.73-80.22,236.25-155.41,0,0,.32,0,.32-.31,54.74-70.15,88.4-157.61,91.54-252.29.32-5.04.32-10.38.32-15.41v-251.37c0-102.84-83.37-186.21-186.21-186.21ZM930.22,453c-4.72,95.32-55.05,179-129.3,229.33-34.29,23.28-80.53,23.59-114.51,0-.31,0-.31-.31-.63-.31l-7.55-5.35c-19.25-13.64-44.76-13.51-64.32-.33-40.38,27.22-85.86,47.8-133.86,54.44-22.65,3.14-44.67,3.77-66.69,1.57-69.84-5.03-134.96-34.92-185.61-85.25-50.33-50.65-80.21-116.08-85.57-185.92-.63-7.86-.94-15.73-.94-23.59,0-101.61,51.28-191.58,129.61-245.06,33.97-23.28,80.53-23.28,114.5.32.32,0,.32.32.63.32,11.96,8.18,26.11,12.27,39.95,12.27s28-4.09,39.95-12.27l43.1-24.23c71.72-23.9,98.46-27.68,125.52-27.68,78.96,0,153.2,30.83,209.51,86.51,56,56.31,86.83,130.87,86.83,209.83,0,5.03,0,10.38-.63,15.41Z"/>
      <path class="cls-3" d="M609.44,445.22c0,7.7-1.27,15.49-3.94,23.12-5.72,16.31-21.15,27.29-38.42,27.29h-42.58c-17.24,0-32.66-10.97-38.39-27.29-10.49-29.89.38-62.78,26.43-79.92,20.19-13.29,46.34-13.33,66.53,0,19.4,12.78,30.37,34.28,30.37,56.8Z"/>
      <path class="cls-2" d="M396.71,445.22c0,7.7-1.27,15.49-3.94,23.12-5.72,16.31-21.15,27.29-38.42,27.29h-42.58c-17.24,0-32.66-10.97-38.39-27.29-10.49-29.89.38-62.78,26.43-79.92,20.19-13.29,46.34-13.33,66.53,0,19.4,12.78,30.37,34.28,30.37,56.8Z"/>
    </g>
  </g>
</svg>
